<svg width="575" height="177" viewBox="0 0 575 177" fill="none" xmlns="http://www.w3.org/2000/svg">
<path d="M290.187 155.688C289.774 155.483 289.345 155.22 288.901 154.903C271.812 144.554 236.345 125.907 221.289 128.344C212.018 144.816 203.157 163.343 197.571 176C154.879 158.195 55.7965 98.2674 1 1L338.543 46.9952C340.911 46.9687 343.092 47.238 345 47.875L338.543 46.9952C324.646 47.1506 304.287 57.4925 294.597 63.5C303.166 82.25 295.227 132.771 290.187 155.688Z" fill="white"/>
<path d="M1 1L345 47.875C331.895 43.5 305.938 56.4687 294.597 63.5M1 1L251.125 91.625M1 1L294.597 63.5M1 1C55.7965 98.2674 154.879 158.195 197.571 176C203.157 163.343 212.018 144.816 221.289 128.344M251.125 91.625C259.945 110.896 280.106 150.687 290.187 155.687M251.125 91.625C243.756 92.3018 232.237 108.891 221.289 128.344M290.187 155.687C295.227 132.771 303.166 82.25 294.597 63.5M290.187 155.687C273.656 145.531 236.734 125.844 221.289 128.344" stroke="#FF9E99"/>
<mask id="path-3-inside-1" fill="white">
<path fill-rule="evenodd" clip-rule="evenodd" d="M400.478 18.5024C400.689 14.1164 401.391 9.61846 402.004 6.6622C409.866 6.44148 417.477 6.40634 423.276 6.72607C422.865 10.0579 422.401 14.9964 422.26 19.6894C422.185 22.177 422.201 24.6057 422.365 26.6943C422.493 28.316 422.713 29.7718 423.068 30.898C416.672 30.3477 409.15 29.8351 401.879 29.5837C401.257 28.4516 400.853 26.887 400.63 25.0378C400.392 23.058 400.367 20.8024 400.478 18.5024ZM423.359 19.7224C423.5 15.0385 423.966 10.0988 424.375 6.79246C426.251 6.91603 427.901 7.08081 429.27 7.29228C430.773 7.52458 431.896 7.80744 432.599 8.13226C433.288 8.45006 434.958 9.48956 437.478 11.166C439.922 12.7923 443.127 14.9918 446.928 17.6452C446.615 20.6327 446.254 25.3652 446.146 30.2749C446.047 34.7625 446.159 39.4338 446.723 43.0598L431.509 31.7851L431.389 31.696L431.24 31.6802C429.182 31.4606 426.827 31.2298 424.27 31.003C423.873 29.9923 423.608 28.4743 423.461 26.6081C423.301 24.5741 423.285 22.1888 423.359 19.7224ZM447.245 30.2991C447.345 25.7433 447.665 21.3397 447.96 18.3664C454.067 22.6409 461.59 27.996 469.89 33.9723C469.367 37.3547 468.761 42.5964 468.58 47.765C468.487 50.4364 468.506 53.0976 468.711 55.4774C468.85 57.0855 469.075 58.5831 469.415 59.876L448.006 44.0106C447.289 40.3828 447.136 35.2724 447.245 30.2991ZM469.679 47.8035C469.849 42.9601 470.396 38.045 470.893 34.6945C477.434 39.4082 484.435 44.4904 491.59 49.7211C491.067 53.0752 490.461 58.2991 490.28 63.5049C490.122 68.0446 490.284 72.6462 491.144 75.9786L470.936 61.003C470.364 59.5829 470.002 57.6395 469.807 55.3829C469.607 53.0619 469.586 50.4481 469.679 47.8035ZM491.379 63.5431C491.548 58.6708 492.094 53.7763 492.591 50.4527C499.665 55.6275 506.876 60.9367 513.929 66.1688C513.386 69.6419 512.707 74.9818 512.373 80.1396C512.2 82.8014 512.119 85.4232 512.197 87.7193C512.249 89.2656 512.374 90.6858 512.6 91.8791L492.641 77.0882C491.459 73.9659 491.196 68.8184 491.379 63.5431ZM513.47 80.2107C513.784 75.3673 514.405 70.3553 514.928 66.9096C522.342 72.4134 529.566 77.8203 536.257 82.8832C535.628 86.1147 534.903 91.1823 534.686 96.3299C534.495 100.845 534.692 105.495 535.732 109.022L513.982 92.9031C513.586 91.6579 513.369 89.8475 513.296 87.6821C513.219 85.4351 513.299 82.8522 513.47 80.2107ZM535.784 96.3762C535.987 91.5652 536.64 86.8191 537.235 83.6239C545.408 89.8155 552.746 95.4661 558.608 100.115C557.804 105.395 556.755 117.101 558.37 125.798L537.309 110.19C535.88 106.799 535.564 101.598 535.784 96.3762ZM569.106 108.745C566.829 106.744 563.589 104.079 559.603 100.905C558.783 106.673 557.843 118.507 559.692 126.778L574.474 137.732L574.697 137.897V138.174V152.854V153.404H574.147H551.675H529.204H486.894H445.141C445.609 154.838 445.862 156.37 445.862 157.96C445.862 166.067 439.29 172.639 431.183 172.639C423.075 172.639 416.503 166.067 416.503 157.96C416.503 156.37 416.756 154.838 417.224 153.404H406.291H405.741V152.854V138.174V137.624H406.291H415.686V125.069V124.519H416.236H430.239L420.225 106.831L419.76 106.01H420.703H423.655L409.509 76.8149H373.74H373.435L373.274 76.5565C371.931 74.4073 371.149 71.238 370.74 67.5843C370.331 63.9153 370.292 59.6921 370.478 55.3869C370.852 46.7759 372.132 37.7819 373.2 32.1249L373.249 31.8658L373.481 31.7417C374.468 31.2158 375.824 30.8046 377.45 30.483C377.275 30.2364 377.123 29.9618 376.991 29.6677C376.682 28.9798 376.466 28.1492 376.32 27.2292C376.027 25.3896 376.001 23.1112 376.132 20.7169C376.377 16.2386 377.178 11.2644 377.893 7.79505C375.854 7.92539 373.953 8.05587 372.237 8.1814L372.157 7.08485C374.077 6.94435 376.228 6.79769 378.545 6.65201C385.332 6.22525 393.543 5.80662 401.54 5.5755C409.832 5.33588 417.907 5.29735 423.928 5.66249C426.035 5.79029 427.899 5.96802 429.438 6.20569C430.965 6.44164 432.212 6.7425 433.06 7.13398C433.844 7.4956 435.594 8.59205 438.087 10.2506C440.598 11.9214 443.904 14.1911 447.824 16.9298C454.135 21.3388 462.045 26.9672 470.807 33.2776C477.64 38.1987 484.992 43.535 492.51 49.0316C499.909 54.4413 507.469 60.0064 514.852 65.4842C522.626 71.2519 530.204 76.923 537.194 82.214C545.771 88.7059 553.463 94.6267 559.543 99.4521C563.874 102.89 567.393 105.777 569.831 107.919C571.049 108.989 572.007 109.881 572.663 110.568C572.99 110.911 573.254 111.214 573.439 111.47C573.532 111.598 573.613 111.725 573.674 111.849C573.729 111.964 573.792 112.124 573.792 112.303H572.692C572.692 112.334 572.697 112.354 572.699 112.361C572.697 112.357 572.693 112.347 572.685 112.331C572.663 112.285 572.62 112.213 572.548 112.114C572.406 111.917 572.181 111.655 571.868 111.328C571.245 110.676 570.316 109.808 569.106 108.745ZM444.733 152.305C442.519 147.005 437.286 143.28 431.183 143.28C425.08 143.28 419.847 147.005 417.632 152.305H406.84V138.724H416.236H453.892H513.514H573.597V152.305H551.675H529.204H486.894H444.733ZM453.342 137.624H416.785V125.618H431.182H438.574H453.342V137.624ZM511.869 137.624H454.441V125.069V124.519H453.892H438.899L428.844 106.294L428.687 106.01H428.362H424.877L410.731 76.8149H430.998L511.869 137.624ZM428.038 107.11L437.643 124.519H431.502L421.646 107.11H424.533H428.038ZM572.482 137.624H513.698L431.512 75.8258L431.365 75.7154H431.182H409.853H374.051C372.931 73.7788 372.219 70.9129 371.833 67.4623C371.432 63.8701 371.391 59.7084 371.577 55.4346C371.942 47.0213 373.181 38.2266 374.23 32.5946C375.259 32.0997 376.762 31.6945 378.669 31.3798C384.154 30.475 392.618 30.3726 401.538 30.6722C409.212 30.9301 417.193 31.4841 423.846 32.0693C426.462 32.2994 428.871 32.5342 430.975 32.7576L447.182 44.7682L470.158 61.7955L491.859 77.8768L513.187 93.6828L536.535 110.985L558.873 127.54L572.482 137.624ZM400.632 29.5432C392.171 29.2852 384.123 29.4001 378.719 30.258C378.453 30.0356 378.208 29.6948 377.994 29.2174C377.738 28.6483 377.543 27.9202 377.405 27.0564C377.13 25.3284 377.1 23.1388 377.23 20.7771C377.478 16.2412 378.309 11.1658 379.031 7.72325C385.527 7.31855 393.277 6.92459 400.875 6.69511C400.265 9.69543 399.588 14.1204 399.38 18.4495C399.267 20.7857 399.29 23.1075 399.538 25.1692C399.736 26.809 400.079 28.3169 400.632 29.5432Z"/>
</mask>
<path fill-rule="evenodd" clip-rule="evenodd" d="M400.478 18.5024C400.689 14.1164 401.391 9.61846 402.004 6.6622C409.866 6.44148 417.477 6.40634 423.276 6.72607C422.865 10.0579 422.401 14.9964 422.26 19.6894C422.185 22.177 422.201 24.6057 422.365 26.6943C422.493 28.316 422.713 29.7718 423.068 30.898C416.672 30.3477 409.15 29.8351 401.879 29.5837C401.257 28.4516 400.853 26.887 400.63 25.0378C400.392 23.058 400.367 20.8024 400.478 18.5024ZM423.359 19.7224C423.5 15.0385 423.966 10.0988 424.375 6.79246C426.251 6.91603 427.901 7.08081 429.27 7.29228C430.773 7.52458 431.896 7.80744 432.599 8.13226C433.288 8.45006 434.958 9.48956 437.478 11.166C439.922 12.7923 443.127 14.9918 446.928 17.6452C446.615 20.6327 446.254 25.3652 446.146 30.2749C446.047 34.7625 446.159 39.4338 446.723 43.0598L431.509 31.7851L431.389 31.696L431.24 31.6802C429.182 31.4606 426.827 31.2298 424.27 31.003C423.873 29.9923 423.608 28.4743 423.461 26.6081C423.301 24.5741 423.285 22.1888 423.359 19.7224ZM447.245 30.2991C447.345 25.7433 447.665 21.3397 447.96 18.3664C454.067 22.6409 461.59 27.996 469.89 33.9723C469.367 37.3547 468.761 42.5964 468.58 47.765C468.487 50.4364 468.506 53.0976 468.711 55.4774C468.85 57.0855 469.075 58.5831 469.415 59.876L448.006 44.0106C447.289 40.3828 447.136 35.2724 447.245 30.2991ZM469.679 47.8035C469.849 42.9601 470.396 38.045 470.893 34.6945C477.434 39.4082 484.435 44.4904 491.59 49.7211C491.067 53.0752 490.461 58.2991 490.28 63.5049C490.122 68.0446 490.284 72.6462 491.144 75.9786L470.936 61.003C470.364 59.5829 470.002 57.6395 469.807 55.3829C469.607 53.0619 469.586 50.4481 469.679 47.8035ZM491.379 63.5431C491.548 58.6708 492.094 53.7763 492.591 50.4527C499.665 55.6275 506.876 60.9367 513.929 66.1688C513.386 69.6419 512.707 74.9818 512.373 80.1396C512.2 82.8014 512.119 85.4232 512.197 87.7193C512.249 89.2656 512.374 90.6858 512.6 91.8791L492.641 77.0882C491.459 73.9659 491.196 68.8184 491.379 63.5431ZM513.47 80.2107C513.784 75.3673 514.405 70.3553 514.928 66.9096C522.342 72.4134 529.566 77.8203 536.257 82.8832C535.628 86.1147 534.903 91.1823 534.686 96.3299C534.495 100.845 534.692 105.495 535.732 109.022L513.982 92.9031C513.586 91.6579 513.369 89.8475 513.296 87.6821C513.219 85.4351 513.299 82.8522 513.47 80.2107ZM535.784 96.3762C535.987 91.5652 536.64 86.8191 537.235 83.6239C545.408 89.8155 552.746 95.4661 558.608 100.115C557.804 105.395 556.755 117.101 558.37 125.798L537.309 110.19C535.88 106.799 535.564 101.598 535.784 96.3762ZM569.106 108.745C566.829 106.744 563.589 104.079 559.603 100.905C558.783 106.673 557.843 118.507 559.692 126.778L574.474 137.732L574.697 137.897V138.174V152.854V153.404H574.147H551.675H529.204H486.894H445.141C445.609 154.838 445.862 156.37 445.862 157.96C445.862 166.067 439.29 172.639 431.183 172.639C423.075 172.639 416.503 166.067 416.503 157.96C416.503 156.37 416.756 154.838 417.224 153.404H406.291H405.741V152.854V138.174V137.624H406.291H415.686V125.069V124.519H416.236H430.239L420.225 106.831L419.76 106.01H420.703H423.655L409.509 76.8149H373.74H373.435L373.274 76.5565C371.931 74.4073 371.149 71.238 370.74 67.5843C370.331 63.9153 370.292 59.6921 370.478 55.3869C370.852 46.7759 372.132 37.7819 373.2 32.1249L373.249 31.8658L373.481 31.7417C374.468 31.2158 375.824 30.8046 377.45 30.483C377.275 30.2364 377.123 29.9618 376.991 29.6677C376.682 28.9798 376.466 28.1492 376.32 27.2292C376.027 25.3896 376.001 23.1112 376.132 20.7169C376.377 16.2386 377.178 11.2644 377.893 7.79505C375.854 7.92539 373.953 8.05587 372.237 8.1814L372.157 7.08485C374.077 6.94435 376.228 6.79769 378.545 6.65201C385.332 6.22525 393.543 5.80662 401.54 5.5755C409.832 5.33588 417.907 5.29735 423.928 5.66249C426.035 5.79029 427.899 5.96802 429.438 6.20569C430.965 6.44164 432.212 6.7425 433.06 7.13398C433.844 7.4956 435.594 8.59205 438.087 10.2506C440.598 11.9214 443.904 14.1911 447.824 16.9298C454.135 21.3388 462.045 26.9672 470.807 33.2776C477.64 38.1987 484.992 43.535 492.51 49.0316C499.909 54.4413 507.469 60.0064 514.852 65.4842C522.626 71.2519 530.204 76.923 537.194 82.214C545.771 88.7059 553.463 94.6267 559.543 99.4521C563.874 102.89 567.393 105.777 569.831 107.919C571.049 108.989 572.007 109.881 572.663 110.568C572.99 110.911 573.254 111.214 573.439 111.47C573.532 111.598 573.613 111.725 573.674 111.849C573.729 111.964 573.792 112.124 573.792 112.303H572.692C572.692 112.334 572.697 112.354 572.699 112.361C572.697 112.357 572.693 112.347 572.685 112.331C572.663 112.285 572.62 112.213 572.548 112.114C572.406 111.917 572.181 111.655 571.868 111.328C571.245 110.676 570.316 109.808 569.106 108.745ZM444.733 152.305C442.519 147.005 437.286 143.28 431.183 143.28C425.08 143.28 419.847 147.005 417.632 152.305H406.84V138.724H416.236H453.892H513.514H573.597V152.305H551.675H529.204H486.894H444.733ZM453.342 137.624H416.785V125.618H431.182H438.574H453.342V137.624ZM511.869 137.624H454.441V125.069V124.519H453.892H438.899L428.844 106.294L428.687 106.01H428.362H424.877L410.731 76.8149H430.998L511.869 137.624ZM428.038 107.11L437.643 124.519H431.502L421.646 107.11H424.533H428.038ZM572.482 137.624H513.698L431.512 75.8258L431.365 75.7154H431.182H409.853H374.051C372.931 73.7788 372.219 70.9129 371.833 67.4623C371.432 63.8701 371.391 59.7084 371.577 55.4346C371.942 47.0213 373.181 38.2266 374.23 32.5946C375.259 32.0997 376.762 31.6945 378.669 31.3798C384.154 30.475 392.618 30.3726 401.538 30.6722C409.212 30.9301 417.193 31.4841 423.846 32.0693C426.462 32.2994 428.871 32.5342 430.975 32.7576L447.182 44.7682L470.158 61.7955L491.859 77.8768L513.187 93.6828L536.535 110.985L558.873 127.54L572.482 137.624ZM400.632 29.5432C392.171 29.2852 384.123 29.4001 378.719 30.258C378.453 30.0356 378.208 29.6948 377.994 29.2174C377.738 28.6483 377.543 27.9202 377.405 27.0564C377.13 25.3284 377.1 23.1388 377.23 20.7771C377.478 16.2412 378.309 11.1658 379.031 7.72325C385.527 7.31855 393.277 6.92459 400.875 6.69511C400.265 9.69543 399.588 14.1204 399.38 18.4495C399.267 20.7857 399.29 23.1075 399.538 25.1692C399.736 26.809 400.079 28.3169 400.632 29.5432Z" fill="white"/>
<path d="M402.004 6.6622L401.974 5.56316L401.105 5.58755L400.928 6.43868L402.004 6.6622ZM400.478 18.5024L399.38 18.4495L400.478 18.5024ZM423.276 6.72607L424.367 6.86058L424.511 5.69303L423.336 5.62826L423.276 6.72607ZM422.26 19.6894L421.161 19.6564L422.26 19.6894ZM422.365 26.6943L423.461 26.6081L422.365 26.6943ZM423.068 30.898L422.974 31.9935L424.612 32.1344L424.117 30.5667L423.068 30.898ZM401.879 29.5837L400.915 30.1129L401.216 30.661L401.841 30.6826L401.879 29.5837ZM400.63 25.0378L401.722 24.9063L400.63 25.0378ZM424.375 6.79246L424.448 5.69536L423.412 5.62711L423.284 6.65731L424.375 6.79246ZM423.359 19.7224L424.458 19.7555L423.359 19.7224ZM429.27 7.29228L429.438 6.20569L429.27 7.29228ZM432.599 8.13226L432.139 9.13054L432.139 9.13054L432.599 8.13226ZM437.478 11.166L438.087 10.2506L438.087 10.2506L437.478 11.166ZM446.928 17.6452L448.022 17.7598L448.089 17.1149L447.558 16.7437L446.928 17.6452ZM446.146 30.2749L445.047 30.2507V30.2507L446.146 30.2749ZM446.723 43.0598L446.069 43.9431L448.222 45.5389L447.81 42.8906L446.723 43.0598ZM431.509 31.7851L430.855 32.6685V32.6685L431.509 31.7851ZM431.389 31.696L432.044 30.8127L431.803 30.6345L431.506 30.6028L431.389 31.696ZM431.24 31.6802L431.124 32.7734H431.124L431.24 31.6802ZM424.27 31.003L423.247 31.4054L423.496 32.0381L424.173 32.0982L424.27 31.003ZM423.461 26.6081L422.365 26.6943L423.461 26.6081ZM447.96 18.3664L448.59 17.4656L447.051 16.3883L446.866 18.2579L447.96 18.3664ZM447.245 30.2991L448.344 30.3233V30.3232L447.245 30.2991ZM469.89 33.9723L470.977 34.1405L471.08 33.4741L470.533 33.0801L469.89 33.9723ZM468.58 47.765L467.481 47.7265L468.58 47.765ZM468.711 55.4774L469.807 55.3829V55.3829L468.711 55.4774ZM469.415 59.876L468.76 60.7594L471.274 62.6219L470.478 59.5965L469.415 59.876ZM448.006 44.0106L446.928 44.2238L447.01 44.6409L447.352 44.894L448.006 44.0106ZM470.893 34.6945L471.536 33.8025L470.071 32.7467L469.805 34.5331L470.893 34.6945ZM469.679 47.8035L468.58 47.765V47.765L469.679 47.8035ZM491.59 49.7211L492.677 49.8906L492.78 49.2288L492.239 48.8335L491.59 49.7211ZM490.28 63.5049L491.379 63.5431L490.28 63.5049ZM491.144 75.9786L490.489 76.862L492.985 78.7114L492.208 75.7038L491.144 75.9786ZM470.936 61.003L469.916 61.4139L470.032 61.7016L470.281 61.8864L470.936 61.003ZM469.807 55.3829L468.711 55.4774V55.4774L469.807 55.3829ZM492.591 50.4527L493.24 49.5653L491.772 48.4916L491.504 50.2902L492.591 50.4527ZM491.379 63.5431L492.478 63.5813L491.379 63.5431ZM513.929 66.1688L515.015 66.3388L515.118 65.6819L514.584 65.2858L513.929 66.1688ZM512.373 80.1396L513.47 80.2107V80.2107L512.373 80.1396ZM512.197 87.7193L513.296 87.6821V87.682L512.197 87.7193ZM512.6 91.8791L511.945 92.7625L514.203 94.4353L513.68 91.6747L512.6 91.8791ZM492.641 77.0882L491.613 77.4775L491.727 77.7794L491.986 77.9715L492.641 77.0882ZM514.928 66.9096L515.583 66.0268L514.115 64.937L513.84 66.7447L514.928 66.9096ZM513.47 80.2107L512.373 80.1396L513.47 80.2107ZM536.257 82.8832L537.336 83.0931L537.467 82.4201L536.92 82.0064L536.257 82.8832ZM534.686 96.3299L533.587 96.2836L534.686 96.3299ZM535.732 109.022L535.078 109.905L537.716 111.861L536.787 108.711L535.732 109.022ZM513.982 92.9031L512.934 93.2363L513.042 93.5749L513.327 93.7865L513.982 92.9031ZM513.296 87.6821L514.394 87.6449V87.6448L513.296 87.6821ZM537.235 83.6239L537.899 82.7475L536.48 81.6724L536.154 83.4228L537.235 83.6239ZM535.784 96.3762L536.883 96.4225L535.784 96.3762ZM558.608 100.115L559.695 100.28L559.791 99.6494L559.292 99.253L558.608 100.115ZM558.37 125.798L557.715 126.681L559.961 128.346L559.451 125.597L558.37 125.798ZM537.309 110.19L536.296 110.617L536.413 110.895L536.655 111.074L537.309 110.19ZM559.603 100.905L560.288 100.045L558.785 98.8482L558.515 100.75L559.603 100.905ZM569.106 108.745L569.831 107.919V107.919L569.106 108.745ZM559.692 126.778L558.619 127.017L558.708 127.417L559.037 127.661L559.692 126.778ZM574.474 137.732L573.82 138.616L573.82 138.616L574.474 137.732ZM574.697 137.897H575.796V137.344L575.351 137.014L574.697 137.897ZM574.697 153.404V154.504H575.796V153.404H574.697ZM445.141 153.404V152.305H443.626L444.096 153.745L445.141 153.404ZM417.224 153.404L418.269 153.745L418.739 152.305H417.224V153.404ZM405.741 153.404H404.641V154.504H405.741V153.404ZM405.741 137.624V136.525H404.641V137.624H405.741ZM415.686 137.624V138.724H416.785V137.624H415.686ZM415.686 124.519V123.42H414.586V124.519H415.686ZM430.239 124.519V125.618H432.125L431.196 123.977L430.239 124.519ZM420.225 106.831L419.268 107.372L420.225 106.831ZM419.76 106.01V104.911H417.874L418.804 106.552L419.76 106.01ZM423.655 106.01V107.11H425.41L424.645 105.531L423.655 106.01ZM409.509 76.8149L410.498 76.3355L410.198 75.7154H409.509V76.8149ZM373.435 76.8149L372.503 77.3976L372.826 77.9144H373.435V76.8149ZM373.274 76.5565L372.342 77.1392L372.342 77.1392L373.274 76.5565ZM370.74 67.5843L369.648 67.7064H369.648L370.74 67.5843ZM370.478 55.3869L369.38 55.3393L370.478 55.3869ZM373.2 32.1249L374.28 32.3287L373.2 32.1249ZM373.249 31.8658L372.731 30.8957L372.266 31.1438L372.168 31.662L373.249 31.8658ZM373.481 31.7417L372.964 30.7716L372.964 30.7716L373.481 31.7417ZM377.45 30.483L377.663 31.5616L379.331 31.2317L378.346 29.8463L377.45 30.483ZM376.991 29.6677L375.988 30.1179H375.988L376.991 29.6677ZM376.32 27.2292L377.405 27.0564L377.405 27.0564L376.32 27.2292ZM376.132 20.7169L375.034 20.6568L376.132 20.7169ZM377.893 7.79505L378.97 8.01684L379.26 6.60593L377.823 6.69782L377.893 7.79505ZM372.237 8.1814L371.141 8.26163L371.221 9.35818L372.318 9.27794L372.237 8.1814ZM372.157 7.08485L372.077 5.9883L370.98 6.06854L371.061 7.16508L372.157 7.08485ZM378.545 6.65201L378.614 7.74932L378.545 6.65201ZM401.54 5.5755L401.572 6.67452L401.54 5.5755ZM423.928 5.66249L423.994 4.56503L423.928 5.66249ZM429.438 6.20569L429.27 7.29228L429.438 6.20569ZM433.06 7.13398L432.599 8.13226V8.13226L433.06 7.13398ZM438.087 10.2506L437.478 11.166L437.478 11.166L438.087 10.2506ZM447.824 16.9298L448.454 16.0285L447.824 16.9298ZM470.807 33.2776L470.165 34.1698L470.807 33.2776ZM492.51 49.0316L491.861 49.9192L492.51 49.0316ZM514.852 65.4842L514.197 66.3672L514.852 65.4842ZM537.194 82.214L536.531 83.0906L537.194 82.214ZM559.543 99.4521L558.859 100.313L559.543 99.4521ZM569.831 107.919L569.106 108.745V108.745L569.831 107.919ZM572.663 110.568L571.868 111.328V111.328L572.663 110.568ZM573.439 111.47L574.33 110.825L574.33 110.825L573.439 111.47ZM573.674 111.849L572.685 112.331L572.685 112.331L573.674 111.849ZM573.792 112.303V113.402H574.891V112.303H573.792ZM572.692 112.303V111.203H571.593V112.303H572.692ZM572.699 112.361L571.664 112.732L573.761 112.078L572.699 112.361ZM572.685 112.331L573.674 111.85L573.674 111.85L572.685 112.331ZM572.548 112.114L573.439 111.47V111.47L572.548 112.114ZM571.868 111.328L571.073 112.088L571.073 112.088L571.868 111.328ZM444.733 152.305L443.719 152.729L444.001 153.404H444.733V152.305ZM417.632 152.305V153.404H418.364L418.647 152.729L417.632 152.305ZM406.84 152.305H405.741V153.404H406.84V152.305ZM406.84 138.724V137.624H405.741V138.724H406.84ZM573.597 138.724H574.697V137.624H573.597V138.724ZM573.597 152.305V153.404H574.697V152.305H573.597ZM416.785 137.624H415.686V138.724H416.785V137.624ZM453.342 137.624V138.724H454.441V137.624H453.342ZM416.785 125.618V124.519H415.686V125.618H416.785ZM453.342 125.618H454.441V124.519H453.342V125.618ZM454.441 137.624H453.342V138.724H454.441V137.624ZM511.869 137.624V138.724H515.16L512.529 136.746L511.869 137.624ZM454.441 124.519H455.541V123.42H454.441V124.519ZM438.899 124.519L437.936 125.05L438.249 125.618H438.899V124.519ZM428.844 106.294L427.881 106.825V106.825L428.844 106.294ZM428.687 106.01L429.649 105.479L429.336 104.911H428.687V106.01ZM424.877 106.01L423.888 106.49L424.188 107.11H424.877V106.01ZM410.731 76.8149V75.7154H408.976L409.741 77.2943L410.731 76.8149ZM430.998 76.8149L431.659 75.9361L431.366 75.7154H430.998V76.8149ZM437.643 124.519V125.618H439.505L438.605 123.988L437.643 124.519ZM428.038 107.11L429 106.578L428.687 106.01H428.038V107.11ZM431.502 124.519L430.546 125.061L430.861 125.618H431.502V124.519ZM421.646 107.11V106.01H419.76L420.689 107.651L421.646 107.11ZM513.698 137.624L513.037 138.503L513.331 138.724H513.698V137.624ZM572.482 137.624V138.724H575.812L573.136 136.741L572.482 137.624ZM431.512 75.8258L430.851 76.7045L430.851 76.7045L431.512 75.8258ZM431.365 75.7154L432.026 74.8367L431.733 74.6159H431.365V75.7154ZM374.051 75.7154L373.099 76.2658L373.417 76.8149H374.051V75.7154ZM371.833 67.4623L370.74 67.5843L371.833 67.4623ZM371.577 55.4346L372.675 55.4823L371.577 55.4346ZM374.23 32.5946L373.754 31.6039L373.252 31.8454L373.15 32.3931L374.23 32.5946ZM378.669 31.3798L378.49 30.295H378.49L378.669 31.3798ZM401.538 30.6722L401.501 31.7711L401.538 30.6722ZM423.846 32.0693L423.75 33.1646L423.846 32.0693ZM430.975 32.7576L431.629 31.8743L431.389 31.6959L431.091 31.6643L430.975 32.7576ZM447.182 44.7682L447.837 43.8849L447.182 44.7682ZM470.158 61.7955L469.504 62.6789L470.158 61.7955ZM491.859 77.8768L492.513 76.9934L491.859 77.8768ZM513.187 93.6828L512.533 94.5662L513.187 93.6828ZM536.535 110.985L535.881 111.869L536.535 110.985ZM558.873 127.54L559.528 126.656L558.873 127.54ZM378.719 30.258L378.013 31.101L378.397 31.4224L378.891 31.3439L378.719 30.258ZM400.632 29.5432L400.598 30.6421L402.357 30.6957L401.634 29.0916L400.632 29.5432ZM377.994 29.2174L376.991 29.6677L376.991 29.6677L377.994 29.2174ZM377.405 27.0564L378.491 26.8836V26.8836L377.405 27.0564ZM377.23 20.7771L376.132 20.7169L377.23 20.7771ZM379.031 7.72325L378.962 6.6259L378.126 6.67797L377.955 7.49757L379.031 7.72325ZM400.875 6.69511L401.953 6.91414L402.229 5.55424L400.842 5.59614L400.875 6.69511ZM399.38 18.4495L400.478 18.5024L399.38 18.4495ZM399.538 25.1692L400.63 25.0378L399.538 25.1692ZM400.928 6.43868C400.305 9.43728 399.594 13.9935 399.38 18.4495L401.576 18.5554C401.784 14.2393 402.476 9.79964 403.081 6.88572L400.928 6.43868ZM423.336 5.62826C417.491 5.30599 409.845 5.34218 401.974 5.56316L402.035 7.76124C409.888 7.54079 417.462 7.50669 423.215 7.82388L423.336 5.62826ZM423.359 19.7224C423.499 15.0718 423.959 10.1682 424.367 6.86058L422.184 6.59157C421.771 9.94756 421.303 14.9211 421.161 19.6564L423.359 19.7224ZM423.461 26.6081C423.301 24.5741 423.285 22.1888 423.359 19.7224L421.161 19.6564C421.086 22.1652 421.1 24.6373 421.269 26.7806L423.461 26.6081ZM424.117 30.5667C423.798 29.5574 423.586 28.1977 423.461 26.6081L421.269 26.7806C421.399 28.4344 421.627 29.9862 422.02 31.2294L424.117 30.5667ZM401.841 30.6826C409.089 30.9331 416.591 31.4443 422.974 31.9935L423.163 29.8026C416.752 29.2511 409.211 28.7371 401.917 28.4849L401.841 30.6826ZM399.538 25.1692C399.769 27.0802 400.196 28.8037 400.915 30.1129L402.842 29.0546C402.318 28.0994 401.937 26.6937 401.722 24.9063L399.538 25.1692ZM399.38 18.4495C399.267 20.7857 399.29 23.1075 399.538 25.1692L401.722 24.9063C401.493 23.0086 401.467 20.819 401.576 18.5554L399.38 18.4495ZM423.284 6.65731C422.872 9.98806 422.402 14.9629 422.26 19.6894L424.458 19.7555C424.597 15.114 425.06 10.2095 425.466 6.92761L423.284 6.65731ZM429.438 6.20569C428.026 5.98764 426.342 5.82016 424.448 5.69536L424.303 7.88955C426.16 8.0119 427.776 8.17398 429.102 8.37886L429.438 6.20569ZM433.06 7.13398C432.212 6.74246 430.965 6.44161 429.438 6.20569L429.102 8.37886C430.582 8.60756 431.579 8.87243 432.139 9.13054L433.06 7.13398ZM438.087 10.2506C435.594 8.59221 433.844 7.49564 433.06 7.13398L432.139 9.13054C432.732 9.40448 434.322 10.3869 436.869 12.0813L438.087 10.2506ZM447.558 16.7437C443.754 14.0882 440.541 11.8834 438.087 10.2506L436.869 12.0813C439.303 13.7011 442.501 15.8953 446.299 18.5467L447.558 16.7437ZM447.245 30.2991C447.352 25.4232 447.711 20.721 448.022 17.7598L445.835 17.5306C445.519 20.5443 445.156 25.3072 445.047 30.2507L447.245 30.2991ZM447.81 42.8906C447.26 39.3616 447.147 34.7674 447.245 30.2991L445.047 30.2507C444.948 34.7576 445.057 39.5059 445.637 43.2289L447.81 42.8906ZM430.855 32.6685L446.069 43.9431L447.378 42.1764L432.164 30.9018L430.855 32.6685ZM430.734 32.5794L430.855 32.6685L432.164 30.9018L432.044 30.8127L430.734 32.5794ZM431.124 32.7734L431.272 32.7893L431.506 30.6028L431.357 30.5869L431.124 32.7734ZM424.173 32.0982C426.724 32.3244 429.072 32.5546 431.124 32.7734L431.357 30.5869C429.291 30.3666 426.93 30.1352 424.367 29.9078L424.173 32.0982ZM422.365 26.6943C422.514 28.5886 422.788 30.2389 423.247 31.4054L425.293 30.6007C424.957 29.7457 424.702 28.36 424.557 26.5218L422.365 26.6943ZM422.26 19.6894C422.185 22.177 422.201 24.6057 422.365 26.6943L424.557 26.5218C424.402 24.5426 424.384 22.2006 424.458 19.7555L422.26 19.6894ZM446.866 18.2579C446.569 21.2549 446.247 25.687 446.146 30.2749L448.344 30.3232C448.444 25.7997 448.762 21.4244 449.054 18.4748L446.866 18.2579ZM470.533 33.0801C462.23 27.102 454.703 21.7438 448.59 17.4656L447.329 19.2671C453.432 23.5379 460.95 28.89 469.248 34.8646L470.533 33.0801ZM469.679 47.8035C469.858 42.6867 470.459 37.4892 470.977 34.1405L468.804 33.8042C468.275 37.2203 467.664 42.5061 467.481 47.7265L469.679 47.8035ZM469.807 55.3829C469.607 53.0619 469.586 50.4481 469.679 47.8035L467.481 47.7265C467.387 50.4247 467.406 53.1332 467.616 55.5719L469.807 55.3829ZM470.478 59.5965C470.16 58.3842 469.942 56.9531 469.807 55.3829L467.616 55.5719C467.758 57.2179 467.991 58.7821 468.352 60.1556L470.478 59.5965ZM447.352 44.894L468.76 60.7594L470.07 58.9927L448.661 43.1273L447.352 44.894ZM446.146 30.2749C446.036 35.262 446.186 40.4725 446.928 44.2238L449.085 43.7974C448.392 40.2932 448.235 35.2827 448.344 30.3233L446.146 30.2749ZM469.805 34.5331C469.304 37.9148 468.752 42.8719 468.58 47.765L470.778 47.842C470.946 43.0484 471.488 38.1752 471.981 34.8559L469.805 34.5331ZM492.239 48.8335C485.082 43.6014 478.079 38.5177 471.536 33.8025L470.25 35.5865C476.789 40.2986 483.788 45.3794 490.942 50.6087L492.239 48.8335ZM491.379 63.5431C491.558 58.3892 492.159 53.2099 492.677 49.8906L490.504 49.5515C489.975 52.9406 489.364 58.209 489.181 63.4667L491.379 63.5431ZM492.208 75.7038C491.39 72.5319 491.222 68.0621 491.379 63.5431L489.181 63.4667C489.023 68.0271 489.178 72.7606 490.079 76.2534L492.208 75.7038ZM470.281 61.8864L490.489 76.862L491.798 75.0953L471.59 60.1196L470.281 61.8864ZM468.711 55.4774C468.91 57.7759 469.284 59.8451 469.916 61.4139L471.956 60.5921C471.443 59.3207 471.093 57.5032 470.902 55.2884L468.711 55.4774ZM468.58 47.765C468.487 50.4364 468.506 53.0976 468.711 55.4774L470.902 55.2884C470.707 53.0262 470.686 50.4598 470.778 47.842L468.58 47.765ZM491.504 50.2902C491.002 53.646 490.451 58.5828 490.28 63.5049L492.478 63.5813C492.645 58.7588 493.187 53.9066 493.678 50.6152L491.504 50.2902ZM514.584 65.2858C507.529 60.0521 500.316 54.7414 493.24 49.5653L491.942 51.3401C499.014 56.5135 506.223 61.8213 513.274 67.0519L514.584 65.2858ZM513.47 80.2107C513.802 75.0933 514.476 69.7872 515.015 66.3388L512.843 65.9989C512.296 69.4966 511.613 74.8703 511.276 80.0685L513.47 80.2107ZM513.296 87.682C513.219 85.4351 513.299 82.8522 513.47 80.2107L511.276 80.0685C511.102 82.7506 511.018 85.4114 511.098 87.7565L513.296 87.682ZM513.68 91.6747C513.469 90.5573 513.347 89.1983 513.296 87.6821L511.098 87.7565C511.151 89.3328 511.279 90.8142 511.52 92.0836L513.68 91.6747ZM491.986 77.9715L511.945 92.7625L513.254 90.9958L493.296 76.2048L491.986 77.9715ZM490.28 63.5049C490.097 68.7783 490.345 74.1274 491.613 77.4775L493.669 76.6989C492.573 73.8043 492.294 68.8585 492.478 63.5813L490.28 63.5049ZM513.84 66.7447C513.314 70.2132 512.689 75.2574 512.373 80.1396L514.567 80.2818C514.879 75.4771 515.495 70.4973 516.015 67.0746L513.84 66.7447ZM536.92 82.0064C530.226 76.9412 522.999 71.5322 515.583 66.0268L514.272 67.7924C521.684 73.2946 528.905 78.6995 535.593 83.7599L536.92 82.0064ZM535.784 96.3762C535.999 91.2924 536.716 86.2801 537.336 83.0931L535.177 82.6733C534.54 85.9494 533.807 91.0723 533.587 96.2836L535.784 96.3762ZM536.787 108.711C535.799 105.362 535.595 100.858 535.784 96.3762L533.587 96.2836C533.395 100.833 533.585 105.629 534.678 109.333L536.787 108.711ZM513.327 93.7865L535.078 109.905L536.387 108.139L514.636 92.0197L513.327 93.7865ZM512.197 87.7192C512.271 89.9115 512.491 91.8439 512.934 93.2363L515.029 92.5699C514.68 91.4718 514.467 89.7836 514.394 87.6449L512.197 87.7192ZM512.373 80.1396C512.2 82.8014 512.119 85.4232 512.197 87.7193L514.394 87.6448C514.32 85.4469 514.397 82.9031 514.567 80.2818L512.373 80.1396ZM536.154 83.4228C535.552 86.6591 534.891 91.4577 534.686 96.3299L536.883 96.4225C537.083 91.6728 537.729 86.9791 538.316 83.825L536.154 83.4228ZM559.292 99.253C553.42 94.5975 546.075 88.9416 537.899 82.7475L536.571 84.5003C544.741 90.6894 552.071 96.3346 557.925 100.976L559.292 99.253ZM559.451 125.597C557.87 117.084 558.897 105.524 559.695 100.28L557.522 99.949C556.712 105.265 555.64 117.117 557.289 125.999L559.451 125.597ZM536.655 111.074L557.715 126.681L559.025 124.915L537.964 109.307L536.655 111.074ZM534.686 96.3299C534.465 101.569 534.765 106.984 536.296 110.617L538.322 109.764C536.996 106.614 536.663 101.628 536.883 96.4225L534.686 96.3299ZM558.919 101.765C562.9 104.935 566.123 107.588 568.38 109.571L569.831 107.919C567.534 105.9 564.278 103.222 560.288 100.045L558.919 101.765ZM560.765 126.538C558.962 118.471 559.876 106.803 560.692 101.06L558.515 100.75C557.691 106.542 556.725 118.542 558.619 127.017L560.765 126.538ZM575.129 136.849L560.346 125.894L559.037 127.661L573.82 138.616L575.129 136.849ZM575.351 137.014L575.129 136.849L573.82 138.616L574.042 138.781L575.351 137.014ZM575.796 138.174V137.897H573.597V138.174H575.796ZM575.796 152.854V138.174H573.597V152.854H575.796ZM575.796 153.404V152.854H573.597V153.404H575.796ZM574.147 154.504H574.697V152.305H574.147V154.504ZM551.675 154.504H574.147V152.305H551.675V154.504ZM529.204 154.504H551.675V152.305H529.204V154.504ZM486.894 154.504H529.204V152.305H486.894V154.504ZM445.141 154.504H486.894V152.305H445.141V154.504ZM446.962 157.96C446.962 156.252 446.69 154.606 446.187 153.063L444.096 153.745C444.528 155.071 444.763 156.487 444.763 157.96H446.962ZM431.183 173.739C439.897 173.739 446.962 166.674 446.962 157.96H444.763C444.763 165.46 438.683 171.54 431.183 171.54V173.739ZM415.404 157.96C415.404 166.674 422.468 173.739 431.183 173.739V171.54C423.683 171.54 417.603 165.46 417.603 157.96H415.404ZM416.179 153.063C415.675 154.606 415.404 156.252 415.404 157.96H417.603C417.603 156.487 417.837 155.071 418.269 153.745L416.179 153.063ZM406.291 154.504H417.224V152.305H406.291V154.504ZM405.741 154.504H406.291V152.305H405.741V154.504ZM404.641 152.854V153.404H406.84V152.854H404.641ZM404.641 138.174V152.854H406.84V138.174H404.641ZM404.641 137.624V138.174H406.84V137.624H404.641ZM406.291 136.525H405.741V138.724H406.291V136.525ZM415.686 136.525H406.291V138.724H415.686V136.525ZM414.586 125.069V137.624H416.785V125.069H414.586ZM414.586 124.519V125.069H416.785V124.519H414.586ZM416.236 123.42H415.686V125.618H416.236V123.42ZM430.239 123.42H416.236V125.618H430.239V123.42ZM419.268 107.372L429.282 125.061L431.196 123.977L421.182 106.289L419.268 107.372ZM418.804 106.552L419.268 107.372L421.182 106.289L420.717 105.468L418.804 106.552ZM420.703 104.911H419.76V107.11H420.703V104.911ZM423.655 104.911H420.703V107.11H423.655V104.911ZM408.519 77.2943L422.666 106.49L424.645 105.531L410.498 76.3355L408.519 77.2943ZM373.74 77.9144H409.509V75.7154H373.74V77.9144ZM373.435 77.9144H373.74V75.7154H373.435V77.9144ZM372.342 77.1392L372.503 77.3976L374.368 76.2322L374.206 75.9738L372.342 77.1392ZM369.648 67.7064C370.061 71.4063 370.865 74.7765 372.342 77.1392L374.206 75.9738C372.997 74.0382 372.236 71.0697 371.833 67.4623L369.648 67.7064ZM369.38 55.3393C369.192 59.6759 369.229 63.9605 369.648 67.7064L371.833 67.4623C371.432 63.8701 371.391 59.7084 371.577 55.4346L369.38 55.3393ZM372.119 31.921C371.045 37.6166 369.756 46.664 369.38 55.3393L371.577 55.4346C371.948 46.8877 373.22 37.9472 374.28 32.3287L372.119 31.921ZM372.168 31.662L372.119 31.921L374.28 32.3287L374.329 32.0697L372.168 31.662ZM372.964 30.7716L372.731 30.8957L373.766 32.8359L373.999 32.7119L372.964 30.7716ZM377.237 29.4044C375.569 29.7345 374.09 30.1712 372.964 30.7716L373.999 32.7119C374.845 32.2603 376.08 31.8748 377.663 31.5616L377.237 29.4044ZM375.988 30.1179C376.144 30.4652 376.33 30.8045 376.554 31.1197L378.346 29.8463C378.22 29.6683 378.102 29.4584 377.994 29.2174L375.988 30.1179ZM375.234 27.402C375.389 28.3782 375.626 29.3113 375.988 30.1179L377.994 29.2174C377.738 28.6483 377.543 27.9202 377.405 27.0564L375.234 27.402ZM375.034 20.6568C374.901 23.0836 374.923 25.4507 375.234 27.402L377.405 27.0564C377.13 25.3284 377.1 23.1387 377.23 20.7771L375.034 20.6568ZM376.816 7.57327C376.095 11.0751 375.284 16.1064 375.034 20.6568L377.23 20.7771C377.471 16.3708 378.262 11.4537 378.97 8.01684L376.816 7.57327ZM372.318 9.27794C374.03 9.15268 375.927 9.02242 377.963 8.89229L377.823 6.69782C375.78 6.82835 373.876 6.95907 372.157 7.08485L372.318 9.27794ZM371.061 7.16508L371.141 8.26163L373.334 8.10116L373.254 7.00461L371.061 7.16508ZM378.476 5.5547C376.156 5.7006 374.001 5.84751 372.077 5.9883L372.237 8.18139C374.154 8.04118 376.301 7.89478 378.614 7.74932L378.476 5.5547ZM401.509 4.47648C393.496 4.70805 385.272 5.12736 378.476 5.5547L378.614 7.74932C385.391 7.32314 393.59 6.9052 401.572 6.67452L401.509 4.47648ZM423.994 4.56503C417.923 4.19684 409.808 4.23662 401.509 4.47648L401.572 6.67452C409.855 6.43515 417.891 6.39786 423.861 6.75995L423.994 4.56503ZM429.605 5.11911C428.021 4.87434 426.12 4.69396 423.994 4.56503L423.861 6.75995C425.95 6.88662 427.777 7.0617 429.27 7.29228L429.605 5.11911ZM433.521 6.1357C432.528 5.67759 431.156 5.35872 429.605 5.11911L429.27 7.29228C430.773 7.52456 431.896 7.80741 432.599 8.13226L433.521 6.1357ZM438.696 9.33522C436.23 7.69439 434.399 6.54112 433.521 6.1357L432.599 8.13226C433.288 8.45008 434.959 9.48971 437.478 11.166L438.696 9.33522ZM448.454 16.0285C444.531 13.2877 441.217 11.0127 438.696 9.33522L437.478 11.166C439.979 12.8301 443.277 15.0944 447.194 17.8311L448.454 16.0285ZM471.45 32.3854C462.685 26.0732 454.771 20.4415 448.454 16.0285L447.194 17.8311C453.5 22.2361 461.405 27.8612 470.165 34.1698L471.45 32.3854ZM493.159 48.1441C485.639 42.646 478.285 37.3082 471.45 32.3854L470.165 34.1698C476.995 39.0892 484.346 44.4239 491.861 49.9192L493.159 48.1441ZM515.507 64.6012C508.122 59.1218 500.56 53.5551 493.159 48.1441L491.861 49.9192C499.258 55.3274 506.816 60.891 514.197 66.3672L515.507 64.6012ZM537.858 81.3373C530.864 76.0438 523.283 70.3706 515.507 64.6012L514.197 66.3672C521.968 72.1333 529.544 77.8022 536.531 83.0906L537.858 81.3373ZM560.226 98.5909C554.137 93.7581 546.438 87.8317 537.858 81.3373L536.531 83.0906C545.104 89.58 552.789 95.4952 558.859 100.313L560.226 98.5909ZM570.557 107.093C568.098 104.932 564.562 102.032 560.226 98.5909L558.859 100.313C563.187 103.748 566.688 106.621 569.106 108.745L570.557 107.093ZM573.458 109.809C572.769 109.087 571.783 108.17 570.557 107.093L569.106 108.745C570.316 109.808 571.245 110.676 571.868 111.328L573.458 109.809ZM574.33 110.825C574.102 110.511 573.8 110.166 573.458 109.809L571.868 111.328C572.181 111.655 572.406 111.917 572.548 112.114L574.33 110.825ZM574.662 111.368C574.564 111.166 574.443 110.982 574.33 110.825L572.548 112.114C572.62 112.213 572.663 112.284 572.685 112.331L574.662 111.368ZM574.891 112.303C574.891 111.879 574.747 111.542 574.662 111.368L572.685 112.331C572.69 112.342 572.694 112.349 572.696 112.355C572.698 112.361 572.699 112.363 572.699 112.362C572.699 112.361 572.697 112.356 572.695 112.346C572.694 112.337 572.692 112.322 572.692 112.303H574.891ZM572.692 113.402H573.792V111.203H572.692V113.402ZM573.761 112.078C573.782 112.159 573.792 112.234 573.792 112.303H571.593C571.593 112.434 571.611 112.549 571.636 112.645L573.761 112.078ZM571.697 112.812C571.69 112.798 571.677 112.771 571.664 112.732L573.733 111.99C573.716 111.943 573.696 111.896 573.674 111.85L571.697 112.812ZM571.658 112.759C571.681 112.791 571.695 112.813 571.702 112.824C571.71 112.836 571.706 112.832 571.697 112.812L573.674 111.85C573.613 111.725 573.531 111.597 573.439 111.47L571.658 112.759ZM571.073 112.088C571.372 112.4 571.557 112.62 571.658 112.759L573.439 111.47C573.254 111.214 572.99 110.911 572.663 110.568L571.073 112.088ZM568.38 109.571C569.582 110.627 570.483 111.47 571.073 112.088L572.663 110.568C572.007 109.881 571.049 108.989 569.831 107.919L568.38 109.571ZM445.748 151.881C443.368 146.186 437.744 142.181 431.183 142.181V144.38C436.827 144.38 441.669 147.824 443.719 152.729L445.748 151.881ZM431.183 142.181C424.621 142.181 418.997 146.186 416.618 151.881L418.647 152.729C420.696 147.824 425.539 144.38 431.183 144.38V142.181ZM406.84 153.404H417.632V151.205H406.84V153.404ZM405.741 138.724V152.305H407.94V138.724H405.741ZM416.236 137.624H406.84V139.823H416.236V137.624ZM453.892 137.624H416.236V139.823H453.892V137.624ZM513.514 137.624H453.892V139.823H513.514V137.624ZM573.597 137.624H513.514V139.823H573.597V137.624ZM574.697 152.305V138.724H572.498V152.305H574.697ZM551.675 153.404H573.597V151.205H551.675V153.404ZM529.204 153.404H551.675V151.205H529.204V153.404ZM486.894 153.404H529.204V151.205H486.894V153.404ZM444.733 153.404H486.894V151.205H444.733V153.404ZM416.785 138.724H453.342V136.525H416.785V138.724ZM415.686 125.618V137.624H417.885V125.618H415.686ZM431.182 124.519H416.785V126.718H431.182V124.519ZM438.574 124.519H431.182V126.718H438.574V124.519ZM453.342 124.519H438.574V126.718H453.342V124.519ZM454.441 137.624V125.618H452.242V137.624H454.441ZM454.441 138.724H511.869V136.525H454.441V138.724ZM453.342 125.069V137.624H455.541V125.069H453.342ZM453.342 124.519V125.069H455.541V124.519H453.342ZM453.892 125.618H454.441V123.42H453.892V125.618ZM438.899 125.618H453.892V123.42H438.899V125.618ZM427.881 106.825L437.936 125.05L439.861 123.988L429.806 105.763L427.881 106.825ZM427.724 106.541L427.881 106.825L429.806 105.763L429.649 105.479L427.724 106.541ZM428.362 107.11H428.687V104.911H428.362V107.11ZM424.877 107.11H428.362V104.911H424.877V107.11ZM409.741 77.2943L423.888 106.49L425.867 105.531L411.72 76.3355L409.741 77.2943ZM430.998 75.7154H410.731V77.9144H430.998V75.7154ZM512.529 136.746L431.659 75.9361L430.337 77.6937L511.208 138.503L512.529 136.746ZM438.605 123.988L429 106.578L427.075 107.641L436.68 125.05L438.605 123.988ZM431.502 125.618H437.643V123.42H431.502V125.618ZM420.689 107.651L430.546 125.061L432.459 123.977L422.603 106.568L420.689 107.651ZM424.533 106.01H421.646V108.209H424.533V106.01ZM428.038 106.01H424.533V108.209H428.038V106.01ZM513.698 138.724H572.482V136.525H513.698V138.724ZM430.851 76.7045L513.037 138.503L514.359 136.746L432.173 74.947L430.851 76.7045ZM430.705 76.5942L430.851 76.7045L432.173 74.947L432.026 74.8367L430.705 76.5942ZM431.182 76.8149H431.365V74.6159H431.182V76.8149ZM409.853 76.8149H431.182V74.6159H409.853V76.8149ZM374.051 76.8149H409.853V74.6159H374.051V76.8149ZM370.74 67.5843C371.131 71.0838 371.865 74.131 373.099 76.2658L375.003 75.165C373.997 73.4267 373.306 70.7421 372.926 67.3402L370.74 67.5843ZM370.478 55.3869C370.292 59.6921 370.331 63.9153 370.74 67.5843L372.926 67.3402C372.533 63.8248 372.491 59.7246 372.675 55.4823L370.478 55.3869ZM373.15 32.3931C372.093 38.0627 370.846 46.9102 370.478 55.3869L372.675 55.4823C373.038 47.1324 374.268 38.3905 375.311 32.7961L373.15 32.3931ZM378.49 30.295C376.546 30.6158 374.922 31.0416 373.754 31.6039L374.707 33.5853C375.596 33.1579 376.978 32.7732 378.848 32.4647L378.49 30.295ZM401.575 29.5734C392.651 29.2736 384.092 29.3709 378.49 30.295L378.848 32.4647C384.216 31.5791 392.584 31.4715 401.501 31.7711L401.575 29.5734ZM423.943 30.9741C417.275 30.3876 409.274 29.832 401.575 29.5734L401.501 31.7711C409.15 32.0281 417.111 32.5806 423.75 33.1646L423.943 30.9741ZM431.091 31.6643C428.98 31.4401 426.564 31.2047 423.943 30.9741L423.75 33.1646C426.359 33.3941 428.762 33.6283 430.859 33.8509L431.091 31.6643ZM447.837 43.8849L431.629 31.8743L430.32 33.641L446.527 45.6516L447.837 43.8849ZM470.813 60.9122L447.837 43.8849L446.527 45.6516L469.504 62.6789L470.813 60.9122ZM492.513 76.9934L470.813 60.9122L469.504 62.6789L491.204 78.7601L492.513 76.9934ZM513.842 92.7994L492.513 76.9934L491.204 78.7601L512.533 94.5662L513.842 92.7994ZM537.19 110.102L513.842 92.7994L512.533 94.5662L535.881 111.869L537.19 110.102ZM559.528 126.656L537.19 110.102L535.881 111.869L558.219 128.423L559.528 126.656ZM573.136 136.741L559.528 126.656L558.219 128.423L571.827 138.508L573.136 136.741ZM378.891 31.3439C384.185 30.5035 392.144 30.3843 400.598 30.6421L400.665 28.4442C392.198 28.186 384.061 28.2968 378.547 29.1721L378.891 31.3439ZM376.991 29.6677C377.25 30.2441 377.582 30.7401 378.013 31.101L379.425 29.4151C379.325 29.3311 379.167 29.1454 378.997 28.7672L376.991 29.6677ZM376.32 27.2292C376.466 28.1491 376.682 28.9798 376.991 29.6677L378.997 28.7672C378.795 28.3168 378.62 27.6912 378.491 26.8836L376.32 27.2292ZM376.132 20.7169C376.001 23.1112 376.027 25.3895 376.32 27.2292L378.491 26.8836C378.234 25.2672 378.2 23.1664 378.328 20.8372L376.132 20.7169ZM377.955 7.49757C377.226 10.9737 376.385 16.1075 376.132 20.7169L378.328 20.8372C378.572 16.3749 379.392 11.3579 380.107 7.94893L377.955 7.49757ZM400.842 5.59614C393.23 5.82604 385.468 6.22064 378.962 6.6259L379.099 8.8206C385.587 8.41645 393.325 8.02313 400.908 7.79409L400.842 5.59614ZM400.478 18.5024C400.683 14.2418 401.351 9.87367 401.953 6.91414L399.798 6.47608C399.18 9.5172 398.493 13.999 398.281 18.3966L400.478 18.5024ZM400.63 25.0378C400.392 23.058 400.367 20.8024 400.478 18.5024L398.281 18.3966C398.167 20.7691 398.189 23.157 398.447 25.3007L400.63 25.0378ZM401.634 29.0916C401.145 28.0056 400.82 26.619 400.63 25.0378L398.447 25.3007C398.651 26.9991 399.014 28.6282 399.629 29.9947L401.634 29.0916Z" fill="#FF8989" mask="url(#path-3-inside-1)"/>
</svg>
